<?xml version="1.0" standalone="no"?>
<!DOCTYPE svg PUBLIC "-//W3C//DTD SVG 20010904//EN"
 "http://www.w3.org/TR/2001/REC-SVG-20010904/DTD/svg10.dtd">
<svg version="1.0" xmlns="http://www.w3.org/2000/svg"
 width="71.000000pt" height="71.000000pt" viewBox="0 0 71.000000 71.000000"
 preserveAspectRatio="xMidYMid meet">
<metadata>
Created by potrace 1.11, written by Peter Selinger 2001-2013
</metadata>
<g transform="translate(0.000000,71.000000) scale(0.100000,-0.100000)"
fill="#000000" stroke="none">
<path d="M570 474 c-207 -47 -377 -119 -502 -213 -35 -25 -64 -55 -66 -66 -3
-11 -1 -17 3 -13 5 4 14 3 20 -2 15 -12 54 0 77 24 118 117 385 245 585 280 7
1 16 5 19 9 12 12 -27 7 -136 -19z"/>
<path d="M5 382 c-11 -11 -4 -19 40 -51 44 -31 45 -32 77 -15 l32 17 -33 28
c-24 20 -44 28 -72 27 -21 0 -40 -3 -44 -6z"/>
<path d="M191 261 l-24 -19 43 -31 c27 -20 55 -31 76 -31 18 0 39 -3 48 -6 9
-3 16 -1 16 5 0 12 -110 101 -125 101 -5 0 -21 -9 -34 -19z"/>
</g>
</svg>
